<svg xmlns="http://www.w3.org/2000/svg" viewBox="0 0 475.37 474.32"><g id="Слой_2" data-name="Слой 2"><g id="Слой_1-2" data-name="Слой 1"><path d="M475.18,234.59c1,30.74-5.24,62-17.3,91.87a237.39,237.39,0,0,1-91.26,109.86,231.43,231.43,0,0,1-81.08,32.93c-19.51,3.94-39.19,5.91-59,4.73a248.67,248.67,0,0,1-55.93-9.5c-25-7.37-48.24-18.11-69.27-33.4-9.28-6.74-17.94-14.36-26.62-21.88-14.5-12.56-26.24-27.53-36.56-43.58A238.09,238.09,0,0,1,5,283.66,229.9,229.9,0,0,1,8.64,174,243.66,243.66,0,0,1,28,125.43a253,253,0,0,1,32.89-46.9,223.18,223.18,0,0,1,44.2-38.4c22.21-15,46.2-26.38,72.46-32.19,13.2-2.92,26.6-5.17,40-6.78A211.28,211.28,0,0,1,247.34.09a204.79,204.79,0,0,1,55.12,8.68c10.11,3.05,20,6.72,30,10.36,10.29,3.77,16,11.63,16.54,22.28a23.36,23.36,0,0,1-14.61,22.52,24.64,24.64,0,0,1-19.94-.24c-17-7.37-34.48-12.89-53-14.66-8.52-.82-17.09-2.12-25.6-1.88C210.61,47.87,186.2,52.66,163,63a192.87,192.87,0,0,0-53.88,35.4c-28.72,26.82-47.52,59.23-55.84,97.52-2.36,10.84-3.13,22.05-4.1,33.14-2.05,23.34,1.9,46.08,9.18,68.06a179,179,0,0,0,29,54.66c17,21.59,37.05,39.52,61.54,52.36,19.07,10,38.95,17.67,60.42,19.86,14.94,1.52,30.11,2.66,45.06,1.85,19.09-1,37.57-6.09,55.33-13.53a192.07,192.07,0,0,0,55.5-35.56c30.2-27.46,48.89-61.43,57.82-100.87,4.4-19.41,5-39.33,4-59.15-.58-11.89,12.58-22.41,23-23,12.86-.76,26.84,10.77,25.27,25.69C474.78,223.84,475.18,228.39,475.18,234.59Z"/><path d="M237.61,246.15l82.72-82.78c37.83-37.84,75.92-75.44,113.31-113.72,8-8.15,27.51-8.37,34.48-.49,9.25,10.45,9.64,24.78-.39,34.81Q361.3,190.43,254.89,296.91c-8.74,8.75-25,9.31-34.12.27q-32.46-32.26-64.71-64.73c-9-9.07-8.79-25.34,1.32-34.17,9.38-8.19,23.76-8.66,33.33.88C206.28,214.7,221.8,230.3,237.61,246.15Z"/></g></g></svg>