<svg xmlns="http://www.w3.org/2000/svg" viewBox="0 0 502.56 416.03"><g id="Слой_2" data-name="Слой 2"><g id="Слой_1-2" data-name="Слой 1"><path d="M365.08,128c7.07,0,14.06-.16,21.05,0,24.48.65,46.29,9.1,66,23.18a118.86,118.86,0,0,1,37.74,44.75,123.49,123.49,0,0,1,11.77,40.65c3,25.27-1.65,49-13.2,71.38-11.38,22-28.46,38.84-50,51-8.87,5-18.23.13-21.94-6a16.87,16.87,0,0,1,5-22.53c7.49-5.24,15.59-10,22-16.33a86.37,86.37,0,0,0,22.83-38.93c5-18.35,4.93-36.86-2-54.66-12.31-31.8-35-52.33-69-58.3-13.08-2.31-26.69-2.21-40-2.09-13,.12-17.11-5.41-20-15.8-5.4-19.78-14.88-37.43-27.55-53.57-15.22-19.41-34.18-33.86-56.36-44.19C237.29,40,222.42,35,206.58,34c-11.1-.7-22.33-1.75-33.35-.85C150,35.06,128,41.89,108.34,54.68c-10,6.49-19.9,13.47-28.49,21.65A147.22,147.22,0,0,0,36.44,155c-6.62,32.42-3.5,63.92,10,94.32C52.9,264,61.74,277,72.05,289.14c4.73,5.56,4.77,15.95-.26,21.88-3.4,4-13.87,8-19.8,3a90.48,90.48,0,0,1-14.28-14.54A189.9,189.9,0,0,1,4.9,229.1,186.46,186.46,0,0,1,22.25,98.39,196.64,196.64,0,0,1,48.18,61.56,183.58,183.58,0,0,1,109.1,16.69c15.77-7.28,32.14-13,49.48-14.6C173.21.72,188-.55,202.65.25c20.27,1.1,39.75,6.53,58.58,14.54a186.38,186.38,0,0,1,67.23,48.88,175,175,0,0,1,36.05,62.87C364.65,127,364.84,127.38,365.08,128Z"/><path d="M235.45,247.72c-2,1.87-3.17,3-4.31,4.1-17.45,17.43-35,34.76-52.28,52.34-9.85,10-25.61,6-28.94-7.11-1.54-6,.41-11.27,4.43-15.33q42.77-43.13,85.86-85.93c5.69-5.65,16.83-5.63,22.53,0,28.69,28.57,57.46,57.07,85.81,86,7.66,7.81,6.2,16.19,0,23.37-5.79,6.73-17.14,6.23-23.8-.39q-26.41-26.26-52.69-52.65c-1.26-1.25-2.57-2.44-4.63-4.4V400.85c0,9.69-6,15.19-16.53,15.18-9.35,0-15.48-6-15.48-15.24V247.72Z"/></g></g></svg>