<svg xmlns="http://www.w3.org/2000/svg" viewBox="0 0 471.67 470.74"><g id="Слой_2" data-name="Слой 2"><g id="Слой_1-2" data-name="Слой 1"><path d="M387,0c25.58-.15,46.8,9.58,63.74,28.29a80.13,80.13,0,0,1,19.86,42.36c3.76,24.16-2.17,45.78-16.35,65.39a27.94,27.94,0,0,1-3.09,3.26l-209,208.94c-27.29,27.28-54.7,54.44-81.75,81.95-6,6.06-13.43,8-20.87,10.12-23,6.49-46.16,12.52-69.26,18.73-13.66,3.68-27.31,7.4-41,11C13.1,474.33-3.65,457.91.7,441.8,9.3,409.93,18.18,378.13,27,346.3c2.07-7.52,3.77-15.19,6.45-22.5,1.75-4.75,4.14-9.78,7.64-13.3Q183,168.15,325.24,26.15a89.94,89.94,0,0,1,44-24.48C375,.35,381,.52,387,0ZM58.88,412.71c20-5.5,38.9-10.65,57.8-15.94,5.25-1.47,10.82-1.81,15.14-6.14q140.77-141,281.69-281.77a32.62,32.62,0,0,0,9.86-23.36c.08-13.82-5.38-24.85-17.53-32.43-14.29-8.92-31.46-7-42.79,4.33q-65.24,65-130.3,130.21-75.48,75.46-150.86,151a24.92,24.92,0,0,0-5.4,9.59c-2.15,6.47-3.55,13.19-5.35,19.78C67.18,382.55,63.16,397.1,58.88,412.71Z"/></g></g></svg>