<svg xmlns="http://www.w3.org/2000/svg" viewBox="0 0 512 512"><g id="Слой_2" data-name="Слой 2"><g id="Слой_1-2" data-name="Слой 1"><path d="M33,0Q270.75,237.51,508.49,475c1.25,1.25,2.34,2.65,3.51,4v23l-10,10H479l-96.46-98.37c-15,7.15-27.83,13.62-40.93,19.37a209.09,209.09,0,0,1-70.55,16.76c-17.76,1.18-35.65.78-53.35-2.68A247.79,247.79,0,0,1,162,429.49c-28.54-13-53.94-30.9-76.83-52.11A416.62,416.62,0,0,1,49,339.15c-15.83-18.89-30.22-38.93-42.17-60.61-2-3.65-4.51-7-6.79-10.54V245a4.5,4.5,0,0,0,1-1,338.42,338.42,0,0,1,32.57-51c7.82-10.08,15.72-20.12,24-29.86,5.44-6.44,11.36-12.5,17.4-18.39S87.49,133.27,94,127.39C78.2,111.63,62.5,96,46.89,80.37S15.63,48.79,0,33V10L10,0ZM344.48,379,299,333.52c-38.79,21.48-79.68,11.55-104.92-12a83.86,83.86,0,0,1-26.76-52.74c-2.26-19.69.92-38.9,11.7-55.9l-52.26-52.28c-11.69,12.09-23.56,24.1-35.13,36.4-16.1,17.12-29.52,36.28-41.41,56.5a6,6,0,0,0,.07,5.14c4.44,7.4,8.83,14.89,14,21.81C73.48,292.9,82.74,305.47,93,317.16c9.23,10.57,19.55,20.23,29.76,29.89A198.56,198.56,0,0,0,141,362a225.79,225.79,0,0,0,46.09,26.66A180.57,180.57,0,0,0,249.27,403c16,.8,31.86-1.5,47.42-5.09A171.53,171.53,0,0,0,344.48,379ZM215,249.51c-3.11,14.54,1.3,27,11.33,36.88,9.82,9.64,22.14,13.72,36.2,10.64Z"/><path d="M512,267c-9.31,14.9-18.3,30-28.05,44.61a277.44,277.44,0,0,1-21.38,28.08c-8.26,9.49-22.7,12.14-34.57,1.57-8.4-7.49-9.71-21.48-2.16-31.75,12.27-16.7,24-33.78,35.82-50.82a5.82,5.82,0,0,0,.21-5.13,335.56,335.56,0,0,0-39.61-54.76c-7.5-8.37-14.76-17-22.89-24.75-20.4-19.4-42.68-36.3-68.48-48-16.37-7.43-33.26-13.45-51.36-15-11.17-1-22.41-2.14-33.58-1.79-9.57.3-19.17,2.17-28.58,4.17-15.4,3.28-26.14-5-29-16.43C185,83.3,191.1,71,206.32,67.12c22.12-5.68,44.86-6.51,67.4-4.87,33,2.39,63.87,12.63,92.83,28.64,17.36,9.6,33.8,20.57,48.57,33.83C426.46,134.89,438,145,448.35,156.1A413.48,413.48,0,0,1,499,222.92C503.28,230,507.66,237,512,244Z"/></g></g></svg>