<svg xmlns="http://www.w3.org/2000/svg" viewBox="0 0 374.48 416.33"><g id="Слой_2" data-name="Слой 2"><g id="Слой_1-2" data-name="Слой 1"><path d="M187.08,288.08q-38.75,0-77.5,0c-12.55,0-24.82,1.48-36.36,6.94-21.68,10.25-35.66,27.06-38.59,50.75-2.17,17.53-1.06,35.47-1.34,53.23-.2,12.68-11.23,20.41-23.14,16.13C4.72,413.2.29,407.07.28,401.29c0-17.16-.7-34.36.16-51.48,1-19.49,8-37.23,19.62-52.95,14.46-19.53,33.68-32.19,57.17-38.14a79.3,79.3,0,0,1,18.94-2.53q91.5-.28,183,0c19.89.1,37.77,7.45,53.66,19A98.26,98.26,0,0,1,371.77,334a93.33,93.33,0,0,1,2.51,19c.36,15.49.12,31,.12,46.49,0,9.8-6.28,16-15.29,16.8a16.5,16.5,0,0,1-17.73-16.78c0-14.33.25-28.67-.05-43-.53-25.61-12.13-45-33.85-58.41-8.79-5.44-18.29-8.85-28.6-8.92-30.6-.21-61.2-.08-91.8-.08Z"/><path d="M187.37,0c56.17-1.41,102.54,45.89,101.9,102.59-.61,54-44.37,103.14-107.22,100.35-51.56-2.29-97.26-44-96.58-103.41C86.08,45.89,130.31-1.27,187.37,0Zm-.3,170c38.68.47,68.48-30.89,69.14-66.69.74-40-29.86-70.73-68.63-71a68.44,68.44,0,0,0-69.15,68C117.81,139.32,149.51,170.41,187.07,170.06Z"/></g></g></svg>