<svg xmlns="http://www.w3.org/2000/svg" viewBox="0 0 470.32 470.23"><g id="Слой_2" data-name="Слой 2"><g id="Слой_1-2" data-name="Слой 1"><path d="M228.07,470.23c-62.13-.93-120.27-26.16-166.69-76.8C17.63,345.71-2.49,288.67.25,224.16,5.29,105.16,102.76-2.47,241.38,0c63.85,1.16,119,25.88,163.31,72.05,46.68,48.67,68.64,107.64,65.3,175-3.21,64.74-29.52,119.43-77.61,162.91C347.78,450.33,294.9,470.08,228.07,470.23Zm8-43.25c51.41-.9,96.74-19,133.77-55.57,37.6-37.08,57-83,57.05-135.74.1-50.38-17.44-94.92-52.24-131.77S296.78,46.48,246.21,44c-63.1-3.12-115.87,19.88-157.28,67.66-30.7,35.42-45.69,77.48-45.48,123.92.25,52.24,19.11,98.09,56.26,135.08S182.64,426.25,236.07,427Z"/><path d="M213.16,190.93c0-19-.15-38,0-57,.14-13.35,9.31-22.38,20.87-23.06a22,22,0,0,1,23.07,22.09c.07,31.18.17,62.36-.12,93.53,0,5,1.4,7.21,6,8.86,20.2,7.31,40.28,14.95,60.4,22.48,7.63,2.85,15.31,5.56,22.84,8.62,9,3.69,13.61,12,12.95,22.74-.45,7.51-7.9,16.7-15.7,18.45-7,1.56-13.62-.64-20.15-3.13q-31.26-11.92-62.59-23.63c-11.12-4.17-22.33-8.14-33.41-12.44-8.87-3.44-14.16-11.71-14.17-21.47Q213.15,218.93,213.16,190.93Z"/></g></g></svg>