<svg xmlns="http://www.w3.org/2000/svg" viewBox="0 0 512 388.99"><g id="Слой_2" data-name="Слой 2"><g id="Слой_1-2" data-name="Слой 1"><path d="M0,183.13C8.94,169,17.31,154.39,27,140.75c9.57-13.47,20.16-26.25,30.89-38.82A269.37,269.37,0,0,1,82.74,76.12C94.07,66,105.91,56.25,118.18,47.23c10-7.37,25.53-2,31.59,8.25C156,66,152.69,80.34,142.58,88c-8,6-15.71,12.44-23.05,19.23-8.6,8-16.89,16.3-24.91,24.86-15.94,17-29.54,35.8-42.06,55.49-4.06,6.37-2.45,10.52,1,15.61C66,221.69,78.8,239.79,93.66,256.5c20.17,22.68,42.54,42.67,68.61,58.21,20.74,12.36,42.94,21.47,67.1,24.33,12.93,1.53,26.11,2.65,39.05,1.85a171.4,171.4,0,0,0,55.85-13.39,213.76,213.76,0,0,0,44.56-25.41c7.32-5.42,15.87-6.23,24.35-1.88,8.26,4.24,12.45,10.77,13,20.3.6,11.34-5.82,17.83-14.05,23.67-19.54,13.88-40.5,25.16-63.31,32.42A286.3,286.3,0,0,1,287.92,386a222.15,222.15,0,0,1-36.85,3,207.16,207.16,0,0,1-55.17-8.35,234.57,234.57,0,0,1-72.51-34.58,478.33,478.33,0,0,1-41.2-33.49A338.89,338.89,0,0,1,52.93,282.4,420,420,0,0,1,9.41,222C6.25,216.73,3.14,211.43,0,206.14Z"/><path d="M512,206.14c-8.95,14.17-17.46,28.64-27,42.42a346.49,346.49,0,0,1-24.85,31.67c-7.14,8.12-16.7,7.21-26,3.85-7-2.54-12.76-12-13.29-19.77-.63-9.07,4.49-15.32,9.33-22q16.08-22.22,31.47-44.93c1-1.51.36-5.17-.82-7-7.27-11.23-14.66-22.4-22.48-33.25-12.71-17.61-27.5-33.43-43.26-48.31a255.25,255.25,0,0,0-47.55-35.5,194,194,0,0,0-54.3-21.59C280,48.7,266.54,48,252.92,48S226.15,50,213,53c-9.81,2.17-23.42-8.26-25-18.57-2.41-16.24,7-26.79,21.85-29.5C227.93,1.6,246-.67,264.35.18a220.07,220.07,0,0,1,69.31,14.14C354.2,22.21,373.74,32,391.43,45.06c12.53,9.23,24.46,19.3,36.29,29.43,6.48,5.56,12.21,12,18.25,18.09,19.62,19.79,35.91,42.19,51,65.52,5.28,8.17,10.06,16.68,15.06,25Z"/><path d="M166.73,204.72c.23-34.82,10.2-56.57,29.34-74.07,8.05-7.36,25.64-6.67,33,3.79,8,11.42,7.07,23-2.66,32.79-19.67,19.7-14.91,52.12,9.74,64.89a40.07,40.07,0,0,0,47.43-8.25c8.26-8.68,22.43-9.93,31.66-3.24a23.69,23.69,0,0,1,4.09,34.58,82.05,82.05,0,0,1-50.69,27.72c-32.46,4.8-60.15-5.54-81.54-30.45C173.36,236.48,166.37,217.45,166.73,204.72Z"/></g></g></svg>