<svg xmlns="http://www.w3.org/2000/svg" viewBox="0 0 320.08 449.06"><g id="Слой_2" data-name="Слой 2"><g id="Слой_1-2" data-name="Слой 1"><path d="M.08,224.41c0-64.49.1-129-.08-193.48C0,16,13,.13,30.69.09q81-.21,162,.13a15.75,15.75,0,0,1,10,4.16Q260,61.22,316.87,118.55a12.22,12.22,0,0,1,3.08,7.83q.23,146.49.12,293c0,12.87-11.74,26.53-24.73,28.61a85.38,85.38,0,0,1-13.27,1q-124.48.09-249,0c-15.88,0-28.48-8.95-32.63-25.12a21.86,21.86,0,0,1-.37-5.44Q.06,321.4.08,224.41ZM32.32,415.67H287.83V161h-5.6q-42.75,0-85.5,0a88.89,88.89,0,0,1-10.27-1c-15-1.74-26.8-16.36-26.54-31,.52-30.16.15-60.33.15-90.5V33.29H32.32ZM192.43,41.29v86.49h86.49Q235.72,84.6,192.43,41.29Z"/><path d="M160.34,288.08h63.41V257.2H160.46V224.36h95.35v96.46H192.4v31.06h63.29v32.84H160.34Z"/></g></g></svg>