<svg xmlns="http://www.w3.org/2000/svg" viewBox="0 0 484.06 506.04"><g id="Слой_2" data-name="Слой 2"><g id="Слой_1-2" data-name="Слой 1"><path d="M118.91,506l-25.74-9.92c-13.11-5.07-24.52-12.95-35.33-21.7a155.23,155.23,0,0,1-44.36-58.29C7.8,403.43,3.4,390.28,2,376.39.86,365.74-.23,355,0,344.31A149.81,149.81,0,0,1,13.42,287c9-20.22,22.13-37.39,37.84-53C119,166.63,186.36,98.9,254,31.5c16.07-16,35.84-25.43,58.12-29.53C339.92-3.14,366,1.76,390.3,15.78a112.68,112.68,0,0,1,42,42.69A111.11,111.11,0,0,1,445.8,97a113.09,113.09,0,0,1-8.57,63.49c-6.43,14.7-16,27-27.3,38.27Q307.69,300.5,205.75,402.59c-10,10-22.48,15.34-36.5,17.51q-28.18,4.36-51.18-12.1-24.13-17.25-28.26-46.88c-2.57-18.3,1.57-34.72,12-49.71a65.85,65.85,0,0,1,7-8.81q94.35-94.49,188.75-188.9c9.73-9.76,28-11,37.49-.2,8.79,10,8.94,24.66-.83,34.53-32.84,33.17-65.95,66.07-99,99.07-29.94,29.93-59.71,60-89.93,89.69a20.47,20.47,0,0,0-1.3,28.19c6.8,8,21.2,8.13,29.12.22l1.42-1.41q102-102,204-204c22.54-22.58,24.71-59.33,5.19-84.46-14.76-19-34.41-27-57.9-25.15-15.26,1.22-28.59,8-39.45,18.84Q183.69,171.59,81.14,274.48c-16.6,16.71-27.08,37-30.32,60.8-4.28,31.57,3.06,60.1,22.92,84.83,17,21.14,39.29,34.1,66.19,39,30.56,5.52,58-2,83.31-19.17a63.49,63.49,0,0,0,9-7.72Q335.91,328.65,439.48,225c10-10,23.2-11.59,33.74-4.5,12.63,8.5,14.7,26.51,3.66,38.07-8.52,8.91-17.4,17.48-26.13,26.2Q360.41,375.12,270,465.37a147.67,147.67,0,0,1-67.18,38.79,21.72,21.72,0,0,0-3.85,1.88Z"/></g></g></svg>