<svg xmlns="http://www.w3.org/2000/svg" viewBox="0 0 490.28 455.38"><g id="Слой_2" data-name="Слой 2"><g id="Слой_1-2" data-name="Слой 1"><path d="M87.16,368.24c-8.61,0-16.43.07-24.25,0-29.26-.29-55.06-19.08-61.61-49.87A60.06,60.06,0,0,1,.19,306.09c-.08-44.18-.45-88.35.12-132.52C.6,151.4,8.67,131.85,24.18,115.5c11.24-11.86,24.36-20.38,40.2-24.37a100.57,100.57,0,0,1,17.83-2.88c7.43-.49,14.92-.12,23-.12,0-9.17,0-17.94,0-26.72.2-30.3,21.23-53.93,50.18-60.18A64,64,0,0,1,168.63.14c51.5-.07,103-.31,154.49.06,29.85.2,56.7,21.1,61.09,51.4a76.71,76.71,0,0,1,1,9.79c.13,8.65,0,17.31,0,26.74,4.11,0,8,.2,11.94,0,15.22-.92,30,1.49,43.48,8.36,19.46,9.9,34.1,24.71,42.65,45.21,5.41,13,7,26.48,7,40.39q-.18,60.27,0,120.52c.05,19.54-6.18,36.35-20.67,49.77a54.4,54.4,0,0,1-31.85,14.76c-11.19,1.14-22.49,1.12-34.53,1.65,0,4.07,0,8.49,0,12.91,0,11,0,22.14-4,32.59-8.31,21.85-23.7,35.69-47,40a65.41,65.41,0,0,1-11.77,1c-64.5.06-129,.36-193.49-.12-22.93-.17-40-11.79-51.66-31.45-6.2-10.48-7.76-22.12-8.09-34C87,382.71,87.16,375.75,87.16,368.24Zm0-35.52c0-14.24-.09-27.37,0-40.51a68.06,68.06,0,0,1,1.08-13.78c6.81-31.18,30-50.87,61.42-51.11,59.65-.47,119.31-.17,179-.09,6.6,0,13.21.48,19.79,1,13.94,1.06,25.8,7.07,35.71,16.57,13.26,12.7,18.6,29,19,46.94.26,11.83,0,23.67.06,35.5,0,1.6.14,3.19.23,5,8.8,0,17.11,0,25.43,0,13.56-.08,25.32-11.92,25.33-25.58,0-44.66.3-89.34-.28-134a48.49,48.49,0,0,0-6.41-22.26c-10.7-18.84-28-27.19-49.39-27.21q-150.22-.09-300.45,0c-4.43,0-8.86.69-13.3.93-15.08.81-27.12,7.49-36.67,19-6.9,8.28-11.33,17.92-11.42,28.56-.36,45.33-.19,90.67-.12,136,0,10.44,8.9,22,19.08,23.38S76,332.2,87.16,332.72Zm158.16,86.54c32,0,64-.11,96,.05a25.86,25.86,0,0,0,25.82-25.57c.32-34.65.52-69.32-.09-104-.27-15.27-9.6-26.28-25.36-26.38q-96.45-.67-192.92,0c-14.79.09-25.16,10.52-25.39,25.26-.56,35-.37,70-.09,105a26.07,26.07,0,0,0,26.1,25.75C181.35,419,213.34,419.26,245.32,419.26ZM141.17,87.77h208c0-9.18-.11-18,0-26.82.18-12.49-11.75-24.73-24.51-24.77-52.68-.17-105.35-.28-158,.07-14.21.1-24.09,10.14-25.33,22.21C140.39,68,141.17,77.75,141.17,87.77Z"/></g></g></svg>