<svg xmlns="http://www.w3.org/2000/svg" viewBox="0 0 424.35 424.89"><g id="Слой_2" data-name="Слой 2"><g id="Слой_1-2" data-name="Слой 1"><path d="M340,311.26c25.5,25.48,51.53,51.54,77.63,77.52,5.87,5.83,8.07,12.49,5.91,20.57-2.39,8.93-8.51,14.15-17.22,15.37-5.65.79-11.14-1.21-15.58-5.69C365.5,393.6,340.08,368.34,314.79,343c-2.52-2.54-3.93-3.59-7.6-.71C288.4,357,267.49,368,244.4,374.19c-12.08,3.22-24.62,4.91-37,6.68a126.17,126.17,0,0,1-21.29,1c-23.07-.63-45.44-5-66.81-13.91A192.37,192.37,0,0,1,.32,178.53,191.58,191.58,0,0,1,42.52,70.36c13.48-16.59,29-31.14,47.7-41.75A265.17,265.17,0,0,1,127.15,10.8C138.18,6.64,150,4,161.64,2.16,172.34.43,183.33.17,194.2,0c23.55-.34,46.15,4.8,67.94,13.39,29,11.44,53.56,29.54,73.85,53,20.62,23.81,34.21,51.44,41.34,82.24,4.53,19.55,5.07,39.42,3.7,59.15a174.92,174.92,0,0,1-21.12,71.76C354,290.38,346.81,300.51,340,311.26ZM191.23,40.93c-84.82-.6-149,66.95-150.86,144.81-2.14,89.56,67.88,151.61,142,155.18,92.31,4.45,155.63-68.81,159-142.25C345.48,107.44,271.54,39.55,191.23,40.93Z"/></g></g></svg>