<svg xmlns="http://www.w3.org/2000/svg" viewBox="0 0 432 474.19"><g id="Слой_2" data-name="Слой 2"><g id="Слой_1-2" data-name="Слой 1"><path d="M43.1,133.09c-6.13,0-11.76.12-17.38,0-14.25-.37-23.56-8.18-25.58-22.72-1.4-10.06,8.27-22.83,18.29-24.21a99.8,99.8,0,0,1,13.26-1c23.17-.09,46.34,0,69.5,0h5.93c0-6.69-.2-13,0-19.25.94-24.71,11.45-43.94,32.93-56.75a64.22,64.22,0,0,1,33.63-9c28.17,0,56.34-.18,84.5.07,26.9.25,47.13,12.33,59.82,36a58.09,58.09,0,0,1,7.16,28.23c-.09,6.65,0,13.3,0,20.7h5.48c25.33,0,50.67-.12,76,.06,10.23.07,18.31,4.2,23,13.86,6.8,13.93-2.3,31.39-16.89,33-7.67.86-15.41,1.05-23.61,1.58v5.81c0,90.32.34,180.64-.23,271-.14,23.41-11.42,41.91-31.8,54.25-11.37,6.89-23.74,9.58-37,9.55-71-.12-142,.05-213-.14-14.68,0-27.76-5.38-39.24-14.57C50.41,445.45,43,427,43.06,404.84q.16-132.48,0-265Zm299.09.35H90.27c-.06,1.18-.14,2-.14,2.81q0,134.48,0,268.94c0,13.62,9.6,22,22.44,22q103.24-.14,206.48,0c14.5,0,23.17-8.7,23.16-23q-.12-132.47,0-264.94Zm-64-48.56c0-6.53.69-12.75-.14-18.76-1.66-12-8-18.63-20.42-18.88C230,46.7,202.33,47,174.69,47.1c-8.31,0-17.89,6.28-19.18,13.59-1.38,7.85-1.29,16-1.86,24.19Z"/><path d="M150.13,279.59c0-21.49.16-43-.07-64.48-.1-9.55,4.63-16.23,12.27-20.39a22.28,22.28,0,0,1,23.84,1c7.2,4.72,11,11.39,11,20.16q0,64,0,128c0,11.69-9,21.74-18.87,23.2-13.55,2-24.95-5.31-27.94-17.48a19,19,0,0,1-.23-4.47Q150.13,312.34,150.13,279.59Z"/><path d="M282.17,280.12q0,32.49,0,65c0,12-10.13,21.21-22.2,22.22-13.43,1.12-25.16-11.42-25-24.93.51-42.16.11-84.32.23-126.48,0-13.26,8.21-21.42,19.44-23.64,11.7-2.31,24.52,5.7,26.79,16.55a26.49,26.49,0,0,1,.71,5.3Q282.22,247.13,282.17,280.12Z"/></g></g></svg>